<mxfile host="app.diagrams.net" modified="2023-10-30T14:52:38.463Z" agent="Mozilla/5.0 (Macintosh; Intel Mac OS X 10_15_7) AppleWebKit/605.1.15 (KHTML, like Gecko) Version/16.5.1 Safari/605.1.15" etag="SHF7wwt0MGfsxudvxNGh" version="22.0.8" type="google">
  <diagram name="Page-1" id="9f46799a-70d6-7492-0946-bef42562c5a5">
    <mxGraphModel grid="1" page="1" gridSize="10" guides="1" tooltips="1" connect="1" arrows="1" fold="1" pageScale="1" pageWidth="827" pageHeight="1169" background="none" math="0" shadow="0">
      <root>
        <mxCell id="0" />
        <mxCell id="1" parent="0" />
        <mxCell id="78961159f06e98e8-43" value="Game Engine" style="swimlane;html=1;fontStyle=1;align=center;verticalAlign=top;childLayout=stackLayout;horizontal=1;startSize=26;horizontalStack=0;resizeParent=1;resizeLast=0;collapsible=1;marginBottom=0;swimlaneFillColor=#ffffff;rounded=0;shadow=0;comic=0;labelBackgroundColor=none;strokeWidth=1;fillColor=none;fontFamily=Verdana;fontSize=10;" vertex="1" parent="1">
          <mxGeometry x="270" y="31" width="160" height="210" as="geometry" />
        </mxCell>
        <mxCell id="78961159f06e98e8-44" value="+ field: window" style="text;html=1;strokeColor=none;fillColor=none;align=left;verticalAlign=top;spacingLeft=4;spacingRight=4;whiteSpace=wrap;overflow=hidden;rotatable=0;points=[[0,0.5],[1,0.5]];portConstraint=eastwest;fontSize=10;" vertex="1" parent="78961159f06e98e8-43">
          <mxGeometry y="26" width="160" height="26" as="geometry" />
        </mxCell>
        <mxCell id="78961159f06e98e8-45" value="+ field: resolution" style="text;html=1;strokeColor=none;fillColor=none;align=left;verticalAlign=top;spacingLeft=4;spacingRight=4;whiteSpace=wrap;overflow=hidden;rotatable=0;points=[[0,0.5],[1,0.5]];portConstraint=eastwest;fontSize=10;" vertex="1" parent="78961159f06e98e8-43">
          <mxGeometry y="52" width="160" height="26" as="geometry" />
        </mxCell>
        <mxCell id="78961159f06e98e8-49" value="+ field: mouse_event" style="text;html=1;strokeColor=none;fillColor=none;align=left;verticalAlign=top;spacingLeft=4;spacingRight=4;whiteSpace=wrap;overflow=hidden;rotatable=0;points=[[0,0.5],[1,0.5]];portConstraint=eastwest;fontSize=10;" vertex="1" parent="78961159f06e98e8-43">
          <mxGeometry y="78" width="160" height="26" as="geometry" />
        </mxCell>
        <mxCell id="78961159f06e98e8-50" value="+ field: Keyboard_event" style="text;html=1;strokeColor=none;fillColor=none;align=left;verticalAlign=top;spacingLeft=4;spacingRight=4;whiteSpace=wrap;overflow=hidden;rotatable=0;points=[[0,0.5],[1,0.5]];portConstraint=eastwest;fontSize=10;" vertex="1" parent="78961159f06e98e8-43">
          <mxGeometry y="104" width="160" height="26" as="geometry" />
        </mxCell>
        <mxCell id="78961159f06e98e8-51" value="" style="line;html=1;strokeWidth=1;fillColor=none;align=left;verticalAlign=middle;spacingTop=-1;spacingLeft=3;spacingRight=3;rotatable=0;labelPosition=right;points=[];portConstraint=eastwest;fontSize=10;" vertex="1" parent="78961159f06e98e8-43">
          <mxGeometry y="130" width="160" height="8" as="geometry" />
        </mxCell>
        <mxCell id="78961159f06e98e8-52" value="+ method(type): Load_Map" style="text;html=1;strokeColor=none;fillColor=none;align=left;verticalAlign=top;spacingLeft=4;spacingRight=4;whiteSpace=wrap;overflow=hidden;rotatable=0;points=[[0,0.5],[1,0.5]];portConstraint=eastwest;fontSize=10;" vertex="1" parent="78961159f06e98e8-43">
          <mxGeometry y="138" width="160" height="26" as="geometry" />
        </mxCell>
        <mxCell id="78961159f06e98e8-53" value="+ method(type): Set_game_Modes" style="text;html=1;strokeColor=none;fillColor=none;align=left;verticalAlign=top;spacingLeft=4;spacingRight=4;whiteSpace=wrap;overflow=hidden;rotatable=0;points=[[0,0.5],[1,0.5]];portConstraint=eastwest;fontSize=10;" vertex="1" parent="78961159f06e98e8-43">
          <mxGeometry y="164" width="160" height="46" as="geometry" />
        </mxCell>
        <mxCell id="78961159f06e98e8-95" value="Tiles" style="swimlane;html=1;fontStyle=1;align=center;verticalAlign=top;childLayout=stackLayout;horizontal=1;startSize=26;horizontalStack=0;resizeParent=1;resizeLast=0;collapsible=1;marginBottom=0;swimlaneFillColor=#ffffff;rounded=0;shadow=0;comic=0;labelBackgroundColor=none;strokeWidth=1;fillColor=none;fontFamily=Verdana;fontSize=10;" vertex="1" parent="1">
          <mxGeometry x="480" y="41" width="160" height="190" as="geometry" />
        </mxCell>
        <mxCell id="78961159f06e98e8-96" value="+ field: x,y" style="text;html=1;strokeColor=none;fillColor=none;align=left;verticalAlign=top;spacingLeft=4;spacingRight=4;whiteSpace=wrap;overflow=hidden;rotatable=0;points=[[0,0.5],[1,0.5]];portConstraint=eastwest;fontSize=10;" vertex="1" parent="78961159f06e98e8-95">
          <mxGeometry y="26" width="160" height="26" as="geometry" />
        </mxCell>
        <mxCell id="78961159f06e98e8-97" value="+ field: tile_type" style="text;html=1;strokeColor=none;fillColor=none;align=left;verticalAlign=top;spacingLeft=4;spacingRight=4;whiteSpace=wrap;overflow=hidden;rotatable=0;points=[[0,0.5],[1,0.5]];portConstraint=eastwest;fontSize=10;" vertex="1" parent="78961159f06e98e8-95">
          <mxGeometry y="52" width="160" height="26" as="geometry" />
        </mxCell>
        <mxCell id="78961159f06e98e8-103" value="" style="line;html=1;strokeWidth=1;fillColor=none;align=left;verticalAlign=middle;spacingTop=-1;spacingLeft=3;spacingRight=3;rotatable=0;labelPosition=right;points=[];portConstraint=eastwest;fontSize=10;" vertex="1" parent="78961159f06e98e8-95">
          <mxGeometry y="78" width="160" height="8" as="geometry" />
        </mxCell>
        <mxCell id="9e5PASEf2bqB0bQW0HJU-2" value="Elements" style="swimlane;html=1;fontStyle=1;align=center;verticalAlign=top;childLayout=stackLayout;horizontal=1;startSize=26;horizontalStack=0;resizeParent=1;resizeLast=0;collapsible=1;marginBottom=0;swimlaneFillColor=#ffffff;rounded=0;shadow=0;comic=0;labelBackgroundColor=none;strokeWidth=1;fillColor=none;fontFamily=Verdana;fontSize=10;" vertex="1" parent="1">
          <mxGeometry x="90" y="230" width="160" height="140" as="geometry" />
        </mxCell>
        <mxCell id="9e5PASEf2bqB0bQW0HJU-3" value="+ field: tile_pos" style="text;html=1;strokeColor=none;fillColor=none;align=left;verticalAlign=top;spacingLeft=4;spacingRight=4;whiteSpace=wrap;overflow=hidden;rotatable=0;points=[[0,0.5],[1,0.5]];portConstraint=eastwest;fontSize=10;" vertex="1" parent="9e5PASEf2bqB0bQW0HJU-2">
          <mxGeometry y="26" width="160" height="26" as="geometry" />
        </mxCell>
        <mxCell id="9e5PASEf2bqB0bQW0HJU-9" value="+ field: Element_ID" style="text;html=1;strokeColor=none;fillColor=none;align=left;verticalAlign=top;spacingLeft=4;spacingRight=4;whiteSpace=wrap;overflow=hidden;rotatable=0;points=[[0,0.5],[1,0.5]];portConstraint=eastwest;fontSize=10;" vertex="1" parent="9e5PASEf2bqB0bQW0HJU-2">
          <mxGeometry y="52" width="160" height="26" as="geometry" />
        </mxCell>
        <mxCell id="9e5PASEf2bqB0bQW0HJU-10" value="" style="line;html=1;strokeWidth=1;fillColor=none;align=left;verticalAlign=middle;spacingTop=-1;spacingLeft=3;spacingRight=3;rotatable=0;labelPosition=right;points=[];portConstraint=eastwest;fontSize=10;" vertex="1" parent="9e5PASEf2bqB0bQW0HJU-2">
          <mxGeometry y="78" width="160" height="8" as="geometry" />
        </mxCell>
        <mxCell id="9e5PASEf2bqB0bQW0HJU-22" style="edgeStyle=orthogonalEdgeStyle;rounded=0;orthogonalLoop=1;jettySize=auto;html=1;entryX=0.5;entryY=1;entryDx=0;entryDy=0;fontSize=10;" edge="1" parent="1" source="9e5PASEf2bqB0bQW0HJU-15" target="9e5PASEf2bqB0bQW0HJU-2">
          <mxGeometry relative="1" as="geometry" />
        </mxCell>
        <mxCell id="9e5PASEf2bqB0bQW0HJU-15" value="Tower" style="swimlane;html=1;fontStyle=1;align=center;verticalAlign=top;childLayout=stackLayout;horizontal=1;startSize=26;horizontalStack=0;resizeParent=1;resizeLast=0;collapsible=1;marginBottom=0;swimlaneFillColor=#ffffff;rounded=0;shadow=0;comic=0;labelBackgroundColor=none;strokeWidth=1;fillColor=none;fontFamily=Verdana;fontSize=10;" vertex="1" parent="1">
          <mxGeometry x="40" y="430" width="160" height="140" as="geometry" />
        </mxCell>
        <mxCell id="9e5PASEf2bqB0bQW0HJU-16" value="+ field: damage" style="text;html=1;strokeColor=none;fillColor=none;align=left;verticalAlign=top;spacingLeft=4;spacingRight=4;whiteSpace=wrap;overflow=hidden;rotatable=0;points=[[0,0.5],[1,0.5]];portConstraint=eastwest;fontSize=10;" vertex="1" parent="9e5PASEf2bqB0bQW0HJU-15">
          <mxGeometry y="26" width="160" height="26" as="geometry" />
        </mxCell>
        <mxCell id="9e5PASEf2bqB0bQW0HJU-17" value="+ field: range" style="text;html=1;strokeColor=none;fillColor=none;align=left;verticalAlign=top;spacingLeft=4;spacingRight=4;whiteSpace=wrap;overflow=hidden;rotatable=0;points=[[0,0.5],[1,0.5]];portConstraint=eastwest;fontSize=10;" vertex="1" parent="9e5PASEf2bqB0bQW0HJU-15">
          <mxGeometry y="52" width="160" height="26" as="geometry" />
        </mxCell>
        <mxCell id="9e5PASEf2bqB0bQW0HJU-18" value="" style="line;html=1;strokeWidth=1;fillColor=none;align=left;verticalAlign=middle;spacingTop=-1;spacingLeft=3;spacingRight=3;rotatable=0;labelPosition=right;points=[];portConstraint=eastwest;fontSize=10;" vertex="1" parent="9e5PASEf2bqB0bQW0HJU-15">
          <mxGeometry y="78" width="160" height="8" as="geometry" />
        </mxCell>
        <mxCell id="9e5PASEf2bqB0bQW0HJU-24" value="Enemies" style="swimlane;html=1;fontStyle=1;align=center;verticalAlign=top;childLayout=stackLayout;horizontal=1;startSize=26;horizontalStack=0;resizeParent=1;resizeLast=0;collapsible=1;marginBottom=0;swimlaneFillColor=#ffffff;rounded=0;shadow=0;comic=0;labelBackgroundColor=none;strokeWidth=1;fillColor=none;fontFamily=Verdana;fontSize=10;" vertex="1" parent="1">
          <mxGeometry x="310" y="290" width="160" height="140" as="geometry" />
        </mxCell>
        <mxCell id="9e5PASEf2bqB0bQW0HJU-25" value="+ field: hp" style="text;html=1;strokeColor=none;fillColor=none;align=left;verticalAlign=top;spacingLeft=4;spacingRight=4;whiteSpace=wrap;overflow=hidden;rotatable=0;points=[[0,0.5],[1,0.5]];portConstraint=eastwest;fontSize=10;" vertex="1" parent="9e5PASEf2bqB0bQW0HJU-24">
          <mxGeometry y="26" width="160" height="26" as="geometry" />
        </mxCell>
        <mxCell id="9e5PASEf2bqB0bQW0HJU-27" value="" style="line;html=1;strokeWidth=1;fillColor=none;align=left;verticalAlign=middle;spacingTop=-1;spacingLeft=3;spacingRight=3;rotatable=0;labelPosition=right;points=[];portConstraint=eastwest;fontSize=10;" vertex="1" parent="9e5PASEf2bqB0bQW0HJU-24">
          <mxGeometry y="52" width="160" height="8" as="geometry" />
        </mxCell>
        <mxCell id="9e5PASEf2bqB0bQW0HJU-42" style="edgeStyle=orthogonalEdgeStyle;rounded=0;orthogonalLoop=1;jettySize=auto;html=1;entryX=1.018;entryY=0.801;entryDx=0;entryDy=0;entryPerimeter=0;fontSize=10;" edge="1" parent="1" source="9e5PASEf2bqB0bQW0HJU-24" target="9e5PASEf2bqB0bQW0HJU-9">
          <mxGeometry relative="1" as="geometry" />
        </mxCell>
        <mxCell id="9e5PASEf2bqB0bQW0HJU-167" style="edgeStyle=orthogonalEdgeStyle;rounded=0;orthogonalLoop=1;jettySize=auto;html=1;" edge="1" parent="1" source="9e5PASEf2bqB0bQW0HJU-53">
          <mxGeometry relative="1" as="geometry">
            <mxPoint x="99.99999999999989" y="570" as="targetPoint" />
          </mxGeometry>
        </mxCell>
        <mxCell id="9e5PASEf2bqB0bQW0HJU-53" value="Tower_alpha" style="swimlane;html=1;fontStyle=1;align=center;verticalAlign=top;childLayout=stackLayout;horizontal=1;startSize=26;horizontalStack=0;resizeParent=1;resizeLast=0;collapsible=1;marginBottom=0;swimlaneFillColor=#ffffff;rounded=0;shadow=0;comic=0;labelBackgroundColor=none;strokeWidth=1;fillColor=none;fontFamily=Verdana;fontSize=10;" vertex="1" parent="1">
          <mxGeometry x="20" y="750" width="160" height="172" as="geometry" />
        </mxCell>
        <mxCell id="9e5PASEf2bqB0bQW0HJU-54" value="+ field: sp_ability" style="text;html=1;strokeColor=none;fillColor=none;align=left;verticalAlign=top;spacingLeft=4;spacingRight=4;whiteSpace=wrap;overflow=hidden;rotatable=0;points=[[0,0.5],[1,0.5]];portConstraint=eastwest;fontSize=10;" vertex="1" parent="9e5PASEf2bqB0bQW0HJU-53">
          <mxGeometry y="26" width="160" height="26" as="geometry" />
        </mxCell>
        <mxCell id="9e5PASEf2bqB0bQW0HJU-55" value="+ field: level" style="text;html=1;strokeColor=none;fillColor=none;align=left;verticalAlign=top;spacingLeft=4;spacingRight=4;whiteSpace=wrap;overflow=hidden;rotatable=0;points=[[0,0.5],[1,0.5]];portConstraint=eastwest;fontSize=10;" vertex="1" parent="9e5PASEf2bqB0bQW0HJU-53">
          <mxGeometry y="52" width="160" height="26" as="geometry" />
        </mxCell>
        <mxCell id="9e5PASEf2bqB0bQW0HJU-56" value="" style="line;html=1;strokeWidth=1;fillColor=none;align=left;verticalAlign=middle;spacingTop=-1;spacingLeft=3;spacingRight=3;rotatable=0;labelPosition=right;points=[];portConstraint=eastwest;fontSize=10;" vertex="1" parent="9e5PASEf2bqB0bQW0HJU-53">
          <mxGeometry y="78" width="160" height="8" as="geometry" />
        </mxCell>
        <mxCell id="9e5PASEf2bqB0bQW0HJU-57" value="+ method(type): load_Graphic" style="text;html=1;strokeColor=none;fillColor=none;align=left;verticalAlign=top;spacingLeft=4;spacingRight=4;whiteSpace=wrap;overflow=hidden;rotatable=0;points=[[0,0.5],[1,0.5]];portConstraint=eastwest;fontSize=10;" vertex="1" parent="9e5PASEf2bqB0bQW0HJU-53">
          <mxGeometry y="86" width="160" height="26" as="geometry" />
        </mxCell>
        <mxCell id="9e5PASEf2bqB0bQW0HJU-58" value="+ method(type): Load_Sound" style="text;html=1;strokeColor=none;fillColor=none;align=left;verticalAlign=top;spacingLeft=4;spacingRight=4;whiteSpace=wrap;overflow=hidden;rotatable=0;points=[[0,0.5],[1,0.5]];portConstraint=eastwest;fontSize=10;" vertex="1" parent="9e5PASEf2bqB0bQW0HJU-53">
          <mxGeometry y="112" width="160" height="26" as="geometry" />
        </mxCell>
        <mxCell id="9e5PASEf2bqB0bQW0HJU-128" value="+ method(type): Upgrade" style="text;html=1;strokeColor=none;fillColor=none;align=left;verticalAlign=top;spacingLeft=4;spacingRight=4;whiteSpace=wrap;overflow=hidden;rotatable=0;points=[[0,0.5],[1,0.5]];portConstraint=eastwest;fontSize=10;" vertex="1" parent="9e5PASEf2bqB0bQW0HJU-53">
          <mxGeometry y="138" width="160" height="26" as="geometry" />
        </mxCell>
        <mxCell id="9e5PASEf2bqB0bQW0HJU-149" style="edgeStyle=orthogonalEdgeStyle;rounded=0;orthogonalLoop=1;jettySize=auto;html=1;" edge="1" parent="1" source="9e5PASEf2bqB0bQW0HJU-103">
          <mxGeometry relative="1" as="geometry">
            <mxPoint x="330" y="430" as="targetPoint" />
          </mxGeometry>
        </mxCell>
        <mxCell id="9e5PASEf2bqB0bQW0HJU-103" value="Enemy_Alpha" style="swimlane;html=1;fontStyle=1;align=center;verticalAlign=top;childLayout=stackLayout;horizontal=1;startSize=26;horizontalStack=0;resizeParent=1;resizeLast=0;collapsible=1;marginBottom=0;swimlaneFillColor=#ffffff;rounded=0;shadow=0;comic=0;labelBackgroundColor=none;strokeWidth=1;fillColor=none;fontFamily=Verdana;fontSize=10;" vertex="1" parent="1">
          <mxGeometry x="280" y="480" width="160" height="140" as="geometry" />
        </mxCell>
        <mxCell id="9e5PASEf2bqB0bQW0HJU-104" value="+ field: Sp_ability" style="text;html=1;strokeColor=none;fillColor=none;align=left;verticalAlign=top;spacingLeft=4;spacingRight=4;whiteSpace=wrap;overflow=hidden;rotatable=0;points=[[0,0.5],[1,0.5]];portConstraint=eastwest;fontSize=10;" vertex="1" parent="9e5PASEf2bqB0bQW0HJU-103">
          <mxGeometry y="26" width="160" height="26" as="geometry" />
        </mxCell>
        <mxCell id="9e5PASEf2bqB0bQW0HJU-105" value="+ field: properties" style="text;html=1;strokeColor=none;fillColor=none;align=left;verticalAlign=top;spacingLeft=4;spacingRight=4;whiteSpace=wrap;overflow=hidden;rotatable=0;points=[[0,0.5],[1,0.5]];portConstraint=eastwest;fontSize=10;" vertex="1" parent="9e5PASEf2bqB0bQW0HJU-103">
          <mxGeometry y="52" width="160" height="26" as="geometry" />
        </mxCell>
        <mxCell id="9e5PASEf2bqB0bQW0HJU-106" value="" style="line;html=1;strokeWidth=1;fillColor=none;align=left;verticalAlign=middle;spacingTop=-1;spacingLeft=3;spacingRight=3;rotatable=0;labelPosition=right;points=[];portConstraint=eastwest;fontSize=10;" vertex="1" parent="9e5PASEf2bqB0bQW0HJU-103">
          <mxGeometry y="78" width="160" height="8" as="geometry" />
        </mxCell>
        <mxCell id="9e5PASEf2bqB0bQW0HJU-151" value="+ method(type): Load_Sound" style="text;html=1;strokeColor=none;fillColor=none;align=left;verticalAlign=top;spacingLeft=4;spacingRight=4;whiteSpace=wrap;overflow=hidden;rotatable=0;points=[[0,0.5],[1,0.5]];portConstraint=eastwest;fontSize=10;" vertex="1" parent="9e5PASEf2bqB0bQW0HJU-103">
          <mxGeometry y="86" width="160" height="26" as="geometry" />
        </mxCell>
        <mxCell id="9e5PASEf2bqB0bQW0HJU-150" value="+ method(type): load_Graphic" style="text;html=1;strokeColor=none;fillColor=none;align=left;verticalAlign=top;spacingLeft=4;spacingRight=4;whiteSpace=wrap;overflow=hidden;rotatable=0;points=[[0,0.5],[1,0.5]];portConstraint=eastwest;fontSize=10;" vertex="1" parent="9e5PASEf2bqB0bQW0HJU-103">
          <mxGeometry y="112" width="160" height="26" as="geometry" />
        </mxCell>
        <mxCell id="9e5PASEf2bqB0bQW0HJU-120" style="edgeStyle=orthogonalEdgeStyle;rounded=0;orthogonalLoop=1;jettySize=auto;html=1;entryX=0.528;entryY=0.004;entryDx=0;entryDy=0;entryPerimeter=0;" edge="1" parent="1" source="78961159f06e98e8-43" target="9e5PASEf2bqB0bQW0HJU-2">
          <mxGeometry relative="1" as="geometry" />
        </mxCell>
        <mxCell id="9e5PASEf2bqB0bQW0HJU-130" style="edgeStyle=orthogonalEdgeStyle;rounded=0;orthogonalLoop=1;jettySize=auto;html=1;fontSize=10;entryX=0.494;entryY=1;entryDx=0;entryDy=0;entryPerimeter=0;" edge="1" parent="1" source="9e5PASEf2bqB0bQW0HJU-131">
          <mxGeometry relative="1" as="geometry">
            <mxPoint x="129" y="578" as="targetPoint" />
            <Array as="points">
              <mxPoint x="240" y="670" />
              <mxPoint x="129" y="670" />
            </Array>
          </mxGeometry>
        </mxCell>
        <mxCell id="9e5PASEf2bqB0bQW0HJU-131" value="Tower_beta" style="swimlane;html=1;fontStyle=1;align=center;verticalAlign=top;childLayout=stackLayout;horizontal=1;startSize=26;horizontalStack=0;resizeParent=1;resizeLast=0;collapsible=1;marginBottom=0;swimlaneFillColor=#ffffff;rounded=0;shadow=0;comic=0;labelBackgroundColor=none;strokeWidth=1;fillColor=none;fontFamily=Verdana;fontSize=10;" vertex="1" parent="1">
          <mxGeometry x="200" y="750" width="160" height="172" as="geometry" />
        </mxCell>
        <mxCell id="9e5PASEf2bqB0bQW0HJU-132" value="+ field: sp_ability" style="text;html=1;strokeColor=none;fillColor=none;align=left;verticalAlign=top;spacingLeft=4;spacingRight=4;whiteSpace=wrap;overflow=hidden;rotatable=0;points=[[0,0.5],[1,0.5]];portConstraint=eastwest;fontSize=10;" vertex="1" parent="9e5PASEf2bqB0bQW0HJU-131">
          <mxGeometry y="26" width="160" height="26" as="geometry" />
        </mxCell>
        <mxCell id="9e5PASEf2bqB0bQW0HJU-133" value="+ field: level" style="text;html=1;strokeColor=none;fillColor=none;align=left;verticalAlign=top;spacingLeft=4;spacingRight=4;whiteSpace=wrap;overflow=hidden;rotatable=0;points=[[0,0.5],[1,0.5]];portConstraint=eastwest;fontSize=10;" vertex="1" parent="9e5PASEf2bqB0bQW0HJU-131">
          <mxGeometry y="52" width="160" height="26" as="geometry" />
        </mxCell>
        <mxCell id="9e5PASEf2bqB0bQW0HJU-134" value="" style="line;html=1;strokeWidth=1;fillColor=none;align=left;verticalAlign=middle;spacingTop=-1;spacingLeft=3;spacingRight=3;rotatable=0;labelPosition=right;points=[];portConstraint=eastwest;fontSize=10;" vertex="1" parent="9e5PASEf2bqB0bQW0HJU-131">
          <mxGeometry y="78" width="160" height="8" as="geometry" />
        </mxCell>
        <mxCell id="9e5PASEf2bqB0bQW0HJU-135" value="+ method(type): load_Graphic" style="text;html=1;strokeColor=none;fillColor=none;align=left;verticalAlign=top;spacingLeft=4;spacingRight=4;whiteSpace=wrap;overflow=hidden;rotatable=0;points=[[0,0.5],[1,0.5]];portConstraint=eastwest;fontSize=10;" vertex="1" parent="9e5PASEf2bqB0bQW0HJU-131">
          <mxGeometry y="86" width="160" height="26" as="geometry" />
        </mxCell>
        <mxCell id="9e5PASEf2bqB0bQW0HJU-136" value="+ method(type): Load_Sound" style="text;html=1;strokeColor=none;fillColor=none;align=left;verticalAlign=top;spacingLeft=4;spacingRight=4;whiteSpace=wrap;overflow=hidden;rotatable=0;points=[[0,0.5],[1,0.5]];portConstraint=eastwest;fontSize=10;" vertex="1" parent="9e5PASEf2bqB0bQW0HJU-131">
          <mxGeometry y="112" width="160" height="26" as="geometry" />
        </mxCell>
        <mxCell id="9e5PASEf2bqB0bQW0HJU-137" value="+ method(type): Upgrade" style="text;html=1;strokeColor=none;fillColor=none;align=left;verticalAlign=top;spacingLeft=4;spacingRight=4;whiteSpace=wrap;overflow=hidden;rotatable=0;points=[[0,0.5],[1,0.5]];portConstraint=eastwest;fontSize=10;" vertex="1" parent="9e5PASEf2bqB0bQW0HJU-131">
          <mxGeometry y="138" width="160" height="26" as="geometry" />
        </mxCell>
        <mxCell id="9e5PASEf2bqB0bQW0HJU-147" style="edgeStyle=orthogonalEdgeStyle;rounded=0;orthogonalLoop=1;jettySize=auto;html=1;" edge="1" parent="1" source="9e5PASEf2bqB0bQW0HJU-139">
          <mxGeometry relative="1" as="geometry">
            <mxPoint x="130" y="570" as="targetPoint" />
            <Array as="points">
              <mxPoint x="450" y="630" />
              <mxPoint x="131" y="630" />
              <mxPoint x="131" y="570" />
            </Array>
          </mxGeometry>
        </mxCell>
        <mxCell id="9e5PASEf2bqB0bQW0HJU-139" value="Tower_Gamma" style="swimlane;html=1;fontStyle=1;align=center;verticalAlign=top;childLayout=stackLayout;horizontal=1;startSize=26;horizontalStack=0;resizeParent=1;resizeLast=0;collapsible=1;marginBottom=0;swimlaneFillColor=#ffffff;rounded=0;shadow=0;comic=0;labelBackgroundColor=none;strokeWidth=1;fillColor=none;fontFamily=Verdana;fontSize=10;" vertex="1" parent="1">
          <mxGeometry x="380" y="750" width="160" height="172" as="geometry" />
        </mxCell>
        <mxCell id="9e5PASEf2bqB0bQW0HJU-140" value="+ field: sp_ability" style="text;html=1;strokeColor=none;fillColor=none;align=left;verticalAlign=top;spacingLeft=4;spacingRight=4;whiteSpace=wrap;overflow=hidden;rotatable=0;points=[[0,0.5],[1,0.5]];portConstraint=eastwest;fontSize=10;" vertex="1" parent="9e5PASEf2bqB0bQW0HJU-139">
          <mxGeometry y="26" width="160" height="26" as="geometry" />
        </mxCell>
        <mxCell id="9e5PASEf2bqB0bQW0HJU-141" value="+ field: level" style="text;html=1;strokeColor=none;fillColor=none;align=left;verticalAlign=top;spacingLeft=4;spacingRight=4;whiteSpace=wrap;overflow=hidden;rotatable=0;points=[[0,0.5],[1,0.5]];portConstraint=eastwest;fontSize=10;" vertex="1" parent="9e5PASEf2bqB0bQW0HJU-139">
          <mxGeometry y="52" width="160" height="26" as="geometry" />
        </mxCell>
        <mxCell id="9e5PASEf2bqB0bQW0HJU-142" value="" style="line;html=1;strokeWidth=1;fillColor=none;align=left;verticalAlign=middle;spacingTop=-1;spacingLeft=3;spacingRight=3;rotatable=0;labelPosition=right;points=[];portConstraint=eastwest;fontSize=10;" vertex="1" parent="9e5PASEf2bqB0bQW0HJU-139">
          <mxGeometry y="78" width="160" height="8" as="geometry" />
        </mxCell>
        <mxCell id="9e5PASEf2bqB0bQW0HJU-143" value="+ method(type): load_Graphic" style="text;html=1;strokeColor=none;fillColor=none;align=left;verticalAlign=top;spacingLeft=4;spacingRight=4;whiteSpace=wrap;overflow=hidden;rotatable=0;points=[[0,0.5],[1,0.5]];portConstraint=eastwest;fontSize=10;" vertex="1" parent="9e5PASEf2bqB0bQW0HJU-139">
          <mxGeometry y="86" width="160" height="26" as="geometry" />
        </mxCell>
        <mxCell id="9e5PASEf2bqB0bQW0HJU-144" value="+ method(type): Load_Sound" style="text;html=1;strokeColor=none;fillColor=none;align=left;verticalAlign=top;spacingLeft=4;spacingRight=4;whiteSpace=wrap;overflow=hidden;rotatable=0;points=[[0,0.5],[1,0.5]];portConstraint=eastwest;fontSize=10;" vertex="1" parent="9e5PASEf2bqB0bQW0HJU-139">
          <mxGeometry y="112" width="160" height="26" as="geometry" />
        </mxCell>
        <mxCell id="9e5PASEf2bqB0bQW0HJU-145" value="+ method(type): Upgrade" style="text;html=1;strokeColor=none;fillColor=none;align=left;verticalAlign=top;spacingLeft=4;spacingRight=4;whiteSpace=wrap;overflow=hidden;rotatable=0;points=[[0,0.5],[1,0.5]];portConstraint=eastwest;fontSize=10;" vertex="1" parent="9e5PASEf2bqB0bQW0HJU-139">
          <mxGeometry y="138" width="160" height="26" as="geometry" />
        </mxCell>
        <mxCell id="9e5PASEf2bqB0bQW0HJU-164" style="edgeStyle=orthogonalEdgeStyle;rounded=0;orthogonalLoop=1;jettySize=auto;html=1;entryX=0.5;entryY=1;entryDx=0;entryDy=0;" edge="1" parent="1" source="9e5PASEf2bqB0bQW0HJU-152" target="9e5PASEf2bqB0bQW0HJU-24">
          <mxGeometry relative="1" as="geometry" />
        </mxCell>
        <mxCell id="9e5PASEf2bqB0bQW0HJU-152" value="Enemy_Alpha" style="swimlane;html=1;fontStyle=1;align=center;verticalAlign=top;childLayout=stackLayout;horizontal=1;startSize=26;horizontalStack=0;resizeParent=1;resizeLast=0;collapsible=1;marginBottom=0;swimlaneFillColor=#ffffff;rounded=0;shadow=0;comic=0;labelBackgroundColor=none;strokeWidth=1;fillColor=none;fontFamily=Verdana;fontSize=10;" vertex="1" parent="1">
          <mxGeometry x="460" y="480" width="160" height="140" as="geometry" />
        </mxCell>
        <mxCell id="9e5PASEf2bqB0bQW0HJU-153" value="+ field: Sp_ability" style="text;html=1;strokeColor=none;fillColor=none;align=left;verticalAlign=top;spacingLeft=4;spacingRight=4;whiteSpace=wrap;overflow=hidden;rotatable=0;points=[[0,0.5],[1,0.5]];portConstraint=eastwest;fontSize=10;" vertex="1" parent="9e5PASEf2bqB0bQW0HJU-152">
          <mxGeometry y="26" width="160" height="26" as="geometry" />
        </mxCell>
        <mxCell id="9e5PASEf2bqB0bQW0HJU-154" value="+ field: properties" style="text;html=1;strokeColor=none;fillColor=none;align=left;verticalAlign=top;spacingLeft=4;spacingRight=4;whiteSpace=wrap;overflow=hidden;rotatable=0;points=[[0,0.5],[1,0.5]];portConstraint=eastwest;fontSize=10;" vertex="1" parent="9e5PASEf2bqB0bQW0HJU-152">
          <mxGeometry y="52" width="160" height="26" as="geometry" />
        </mxCell>
        <mxCell id="9e5PASEf2bqB0bQW0HJU-155" value="" style="line;html=1;strokeWidth=1;fillColor=none;align=left;verticalAlign=middle;spacingTop=-1;spacingLeft=3;spacingRight=3;rotatable=0;labelPosition=right;points=[];portConstraint=eastwest;fontSize=10;" vertex="1" parent="9e5PASEf2bqB0bQW0HJU-152">
          <mxGeometry y="78" width="160" height="8" as="geometry" />
        </mxCell>
        <mxCell id="9e5PASEf2bqB0bQW0HJU-156" value="+ method(type): Load_Sound" style="text;html=1;strokeColor=none;fillColor=none;align=left;verticalAlign=top;spacingLeft=4;spacingRight=4;whiteSpace=wrap;overflow=hidden;rotatable=0;points=[[0,0.5],[1,0.5]];portConstraint=eastwest;fontSize=10;" vertex="1" parent="9e5PASEf2bqB0bQW0HJU-152">
          <mxGeometry y="86" width="160" height="26" as="geometry" />
        </mxCell>
        <mxCell id="9e5PASEf2bqB0bQW0HJU-157" value="+ method(type): load_Graphic" style="text;html=1;strokeColor=none;fillColor=none;align=left;verticalAlign=top;spacingLeft=4;spacingRight=4;whiteSpace=wrap;overflow=hidden;rotatable=0;points=[[0,0.5],[1,0.5]];portConstraint=eastwest;fontSize=10;" vertex="1" parent="9e5PASEf2bqB0bQW0HJU-152">
          <mxGeometry y="112" width="160" height="26" as="geometry" />
        </mxCell>
        <mxCell id="9e5PASEf2bqB0bQW0HJU-166" style="edgeStyle=orthogonalEdgeStyle;rounded=0;orthogonalLoop=1;jettySize=auto;html=1;" edge="1" parent="1" source="9e5PASEf2bqB0bQW0HJU-158">
          <mxGeometry relative="1" as="geometry">
            <mxPoint x="450" y="430" as="targetPoint" />
            <Array as="points">
              <mxPoint x="680" y="450" />
              <mxPoint x="450" y="450" />
            </Array>
          </mxGeometry>
        </mxCell>
        <mxCell id="9e5PASEf2bqB0bQW0HJU-158" value="Enemy_Gamma" style="swimlane;html=1;fontStyle=1;align=center;verticalAlign=top;childLayout=stackLayout;horizontal=1;startSize=26;horizontalStack=0;resizeParent=1;resizeLast=0;collapsible=1;marginBottom=0;swimlaneFillColor=#ffffff;rounded=0;shadow=0;comic=0;labelBackgroundColor=none;strokeWidth=1;fillColor=none;fontFamily=Verdana;fontSize=10;" vertex="1" parent="1">
          <mxGeometry x="640" y="480" width="160" height="140" as="geometry" />
        </mxCell>
        <mxCell id="9e5PASEf2bqB0bQW0HJU-159" value="+ field: Sp_ability" style="text;html=1;strokeColor=none;fillColor=none;align=left;verticalAlign=top;spacingLeft=4;spacingRight=4;whiteSpace=wrap;overflow=hidden;rotatable=0;points=[[0,0.5],[1,0.5]];portConstraint=eastwest;fontSize=10;" vertex="1" parent="9e5PASEf2bqB0bQW0HJU-158">
          <mxGeometry y="26" width="160" height="26" as="geometry" />
        </mxCell>
        <mxCell id="9e5PASEf2bqB0bQW0HJU-160" value="+ field: properties" style="text;html=1;strokeColor=none;fillColor=none;align=left;verticalAlign=top;spacingLeft=4;spacingRight=4;whiteSpace=wrap;overflow=hidden;rotatable=0;points=[[0,0.5],[1,0.5]];portConstraint=eastwest;fontSize=10;" vertex="1" parent="9e5PASEf2bqB0bQW0HJU-158">
          <mxGeometry y="52" width="160" height="26" as="geometry" />
        </mxCell>
        <mxCell id="9e5PASEf2bqB0bQW0HJU-161" value="" style="line;html=1;strokeWidth=1;fillColor=none;align=left;verticalAlign=middle;spacingTop=-1;spacingLeft=3;spacingRight=3;rotatable=0;labelPosition=right;points=[];portConstraint=eastwest;fontSize=10;" vertex="1" parent="9e5PASEf2bqB0bQW0HJU-158">
          <mxGeometry y="78" width="160" height="8" as="geometry" />
        </mxCell>
        <mxCell id="9e5PASEf2bqB0bQW0HJU-162" value="+ method(type): Load_Sound" style="text;html=1;strokeColor=none;fillColor=none;align=left;verticalAlign=top;spacingLeft=4;spacingRight=4;whiteSpace=wrap;overflow=hidden;rotatable=0;points=[[0,0.5],[1,0.5]];portConstraint=eastwest;fontSize=10;" vertex="1" parent="9e5PASEf2bqB0bQW0HJU-158">
          <mxGeometry y="86" width="160" height="26" as="geometry" />
        </mxCell>
        <mxCell id="9e5PASEf2bqB0bQW0HJU-163" value="+ method(type): load_Graphic" style="text;html=1;strokeColor=none;fillColor=none;align=left;verticalAlign=top;spacingLeft=4;spacingRight=4;whiteSpace=wrap;overflow=hidden;rotatable=0;points=[[0,0.5],[1,0.5]];portConstraint=eastwest;fontSize=10;" vertex="1" parent="9e5PASEf2bqB0bQW0HJU-158">
          <mxGeometry y="112" width="160" height="26" as="geometry" />
        </mxCell>
        <mxCell id="9e5PASEf2bqB0bQW0HJU-169" value="GameStatus" style="swimlane;html=1;fontStyle=1;align=center;verticalAlign=top;childLayout=stackLayout;horizontal=1;startSize=26;horizontalStack=0;resizeParent=1;resizeLast=0;collapsible=1;marginBottom=0;swimlaneFillColor=#ffffff;rounded=0;shadow=0;comic=0;labelBackgroundColor=none;strokeWidth=1;fillColor=none;fontFamily=Verdana;fontSize=10;" vertex="1" parent="1">
          <mxGeometry x="650" y="40" width="160" height="220" as="geometry" />
        </mxCell>
        <mxCell id="9e5PASEf2bqB0bQW0HJU-170" value="+ field: Time" style="text;html=1;strokeColor=none;fillColor=none;align=left;verticalAlign=top;spacingLeft=4;spacingRight=4;whiteSpace=wrap;overflow=hidden;rotatable=0;points=[[0,0.5],[1,0.5]];portConstraint=eastwest;fontSize=10;" vertex="1" parent="9e5PASEf2bqB0bQW0HJU-169">
          <mxGeometry y="26" width="160" height="26" as="geometry" />
        </mxCell>
        <mxCell id="9e5PASEf2bqB0bQW0HJU-171" value="+ field: Score" style="text;html=1;strokeColor=none;fillColor=none;align=left;verticalAlign=top;spacingLeft=4;spacingRight=4;whiteSpace=wrap;overflow=hidden;rotatable=0;points=[[0,0.5],[1,0.5]];portConstraint=eastwest;fontSize=10;" vertex="1" parent="9e5PASEf2bqB0bQW0HJU-169">
          <mxGeometry y="52" width="160" height="26" as="geometry" />
        </mxCell>
        <mxCell id="9e5PASEf2bqB0bQW0HJU-172" value="+ field: Money" style="text;html=1;strokeColor=none;fillColor=none;align=left;verticalAlign=top;spacingLeft=4;spacingRight=4;whiteSpace=wrap;overflow=hidden;rotatable=0;points=[[0,0.5],[1,0.5]];portConstraint=eastwest;fontSize=10;" vertex="1" parent="9e5PASEf2bqB0bQW0HJU-169">
          <mxGeometry y="78" width="160" height="26" as="geometry" />
        </mxCell>
        <mxCell id="9e5PASEf2bqB0bQW0HJU-173" value="" style="line;html=1;strokeWidth=1;fillColor=none;align=left;verticalAlign=middle;spacingTop=-1;spacingLeft=3;spacingRight=3;rotatable=0;labelPosition=right;points=[];portConstraint=eastwest;fontSize=10;" vertex="1" parent="9e5PASEf2bqB0bQW0HJU-169">
          <mxGeometry y="104" width="160" height="8" as="geometry" />
        </mxCell>
        <mxCell id="9e5PASEf2bqB0bQW0HJU-174" value="+ method(type): trackTime" style="text;html=1;strokeColor=none;fillColor=none;align=left;verticalAlign=top;spacingLeft=4;spacingRight=4;whiteSpace=wrap;overflow=hidden;rotatable=0;points=[[0,0.5],[1,0.5]];portConstraint=eastwest;fontSize=10;" vertex="1" parent="9e5PASEf2bqB0bQW0HJU-169">
          <mxGeometry y="112" width="160" height="26" as="geometry" />
        </mxCell>
        <mxCell id="9e5PASEf2bqB0bQW0HJU-175" value="+ method(type): updateScore" style="text;html=1;strokeColor=none;fillColor=none;align=left;verticalAlign=top;spacingLeft=4;spacingRight=4;whiteSpace=wrap;overflow=hidden;rotatable=0;points=[[0,0.5],[1,0.5]];portConstraint=eastwest;fontSize=10;" vertex="1" parent="9e5PASEf2bqB0bQW0HJU-169">
          <mxGeometry y="138" width="160" height="26" as="geometry" />
        </mxCell>
        <mxCell id="y4nqTIVLlOYIPWPYfvpn-2" value="+ method(type): addMoney" style="text;html=1;strokeColor=none;fillColor=none;align=left;verticalAlign=top;spacingLeft=4;spacingRight=4;whiteSpace=wrap;overflow=hidden;rotatable=0;points=[[0,0.5],[1,0.5]];portConstraint=eastwest;fontSize=10;" vertex="1" parent="9e5PASEf2bqB0bQW0HJU-169">
          <mxGeometry y="164" width="160" height="26" as="geometry" />
        </mxCell>
        <mxCell id="y4nqTIVLlOYIPWPYfvpn-3" value="+ method(type): spendMoney" style="text;html=1;strokeColor=none;fillColor=none;align=left;verticalAlign=top;spacingLeft=4;spacingRight=4;whiteSpace=wrap;overflow=hidden;rotatable=0;points=[[0,0.5],[1,0.5]];portConstraint=eastwest;fontSize=10;" vertex="1" parent="9e5PASEf2bqB0bQW0HJU-169">
          <mxGeometry y="190" width="160" height="26" as="geometry" />
        </mxCell>
        <mxCell id="y4nqTIVLlOYIPWPYfvpn-1" value="+ method(type): trackTime" style="text;html=1;strokeColor=none;fillColor=none;align=left;verticalAlign=top;spacingLeft=4;spacingRight=4;whiteSpace=wrap;overflow=hidden;rotatable=0;points=[[0,0.5],[1,0.5]];portConstraint=eastwest;fontSize=10;" vertex="1" parent="1">
          <mxGeometry x="650" y="152" width="160" height="26" as="geometry" />
        </mxCell>
      </root>
    </mxGraphModel>
  </diagram>
</mxfile>
